<svg width="104" height="20" viewBox="0 0 104 20" fill="none" xmlns="http://www.w3.org/2000/svg">
<path d="M-4.79817e-06 15.44V1.44H6.56C8.24 1.44 9.52 1.77333 10.4 2.44C11.28 3.09334 11.72 3.97334 11.72 5.08C11.72 5.82667 11.5467 6.46667 11.2 7C10.8533 7.52 10.3867 7.92667 9.8 8.22C9.22666 8.5 8.6 8.64 7.92 8.64L8.28 7.92C9.06666 7.92 9.77333 8.06667 10.4 8.36C11.0267 8.64 11.52 9.05334 11.88 9.6C12.2533 10.1467 12.44 10.8267 12.44 11.64C12.44 12.84 11.98 13.7733 11.06 14.44C10.14 15.1067 8.77333 15.44 6.96 15.44H-4.79817e-06ZM2.6 13.4H6.8C7.77333 13.4 8.52 13.24 9.04 12.92C9.56 12.6 9.82 12.0867 9.82 11.38C9.82 10.6867 9.56 10.18 9.04 9.86C8.52 9.52667 7.77333 9.36 6.8 9.36H2.4V7.34H6.28C7.18666 7.34 7.88 7.18 8.36 6.86C8.85333 6.54 9.1 6.06 9.1 5.42C9.1 4.76667 8.85333 4.28 8.36 3.96C7.88 3.64 7.18666 3.48 6.28 3.48H2.6V13.4ZM19.7748 15.58C18.6815 15.58 17.7082 15.3467 16.8548 14.88C16.0015 14.4 15.3282 13.7467 14.8348 12.92C14.3415 12.0933 14.0948 11.1533 14.0948 10.1C14.0948 9.03334 14.3415 8.09334 14.8348 7.28C15.3282 6.45334 16.0015 5.80667 16.8548 5.34C17.7082 4.87334 18.6815 4.64 19.7748 4.64C20.8815 4.64 21.8615 4.87334 22.7148 5.34C23.5815 5.80667 24.2548 6.44667 24.7348 7.26C25.2282 8.07334 25.4748 9.02 25.4748 10.1C25.4748 11.1533 25.2282 12.0933 24.7348 12.92C24.2548 13.7467 23.5815 14.4 22.7148 14.88C21.8615 15.3467 20.8815 15.58 19.7748 15.58ZM19.7748 13.44C20.3882 13.44 20.9348 13.3067 21.4148 13.04C21.8948 12.7733 22.2682 12.3867 22.5348 11.88C22.8148 11.3733 22.9548 10.78 22.9548 10.1C22.9548 9.40667 22.8148 8.81334 22.5348 8.32C22.2682 7.81334 21.8948 7.42667 21.4148 7.16C20.9348 6.89334 20.3948 6.76 19.7948 6.76C19.1815 6.76 18.6348 6.89334 18.1548 7.16C17.6882 7.42667 17.3148 7.81334 17.0348 8.32C16.7548 8.81334 16.6148 9.40667 16.6148 10.1C16.6148 10.78 16.7548 11.3733 17.0348 11.88C17.3148 12.3867 17.6882 12.7733 18.1548 13.04C18.6348 13.3067 19.1748 13.44 19.7748 13.44ZM32.6655 15.58C31.5721 15.58 30.5988 15.3467 29.7455 14.88C28.8921 14.4 28.2188 13.7467 27.7255 12.92C27.2321 12.0933 26.9855 11.1533 26.9855 10.1C26.9855 9.03334 27.2321 8.09334 27.7255 7.28C28.2188 6.45334 28.8921 5.80667 29.7455 5.34C30.5988 4.87334 31.5721 4.64 32.6655 4.64C33.7721 4.64 34.7521 4.87334 35.6055 5.34C36.4721 5.80667 37.1455 6.44667 37.6255 7.26C38.1188 8.07334 38.3655 9.02 38.3655 10.1C38.3655 11.1533 38.1188 12.0933 37.6255 12.92C37.1455 13.7467 36.4721 14.4 35.6055 14.88C34.7521 15.3467 33.7721 15.58 32.6655 15.58ZM32.6655 13.44C33.2788 13.44 33.8255 13.3067 34.3055 13.04C34.7855 12.7733 35.1588 12.3867 35.4255 11.88C35.7055 11.3733 35.8455 10.78 35.8455 10.1C35.8455 9.40667 35.7055 8.81334 35.4255 8.32C35.1588 7.81334 34.7855 7.42667 34.3055 7.16C33.8255 6.89334 33.2855 6.76 32.6855 6.76C32.0721 6.76 31.5255 6.89334 31.0455 7.16C30.5788 7.42667 30.2055 7.81334 29.9255 8.32C29.6455 8.81334 29.5055 9.40667 29.5055 10.1C29.5055 10.78 29.6455 11.3733 29.9255 11.88C30.2055 12.3867 30.5788 12.7733 31.0455 13.04C31.5255 13.3067 32.0655 13.44 32.6655 13.44ZM42.7961 13.06L42.8561 9.92L48.4361 4.76H51.4361L46.6961 9.52L45.3761 10.62L42.7961 13.06ZM40.7561 15.44V0.600002H43.2561V15.44H40.7561ZM48.8161 15.44L44.9161 10.62L46.4961 8.62L51.8561 15.44H48.8161ZM57.4714 15.58C56.2981 15.58 55.3914 15.28 54.7514 14.68C54.1114 14.0667 53.7914 13.1667 53.7914 11.98V2.4H56.2914V11.92C56.2914 12.4267 56.4181 12.82 56.6714 13.1C56.9381 13.38 57.3047 13.52 57.7714 13.52C58.3314 13.52 58.7981 13.3733 59.1714 13.08L59.8714 14.86C59.5781 15.1 59.2181 15.28 58.7914 15.4C58.3647 15.52 57.9247 15.58 57.4714 15.58ZM52.0314 6.76V4.76H59.1514V6.76H52.0314ZM66.3764 15.58C65.2831 15.58 64.3097 15.3467 63.4564 14.88C62.6031 14.4 61.9297 13.7467 61.4364 12.92C60.9431 12.0933 60.6964 11.1533 60.6964 10.1C60.6964 9.03334 60.9431 8.09334 61.4364 7.28C61.9297 6.45334 62.6031 5.80667 63.4564 5.34C64.3097 4.87334 65.2831 4.64 66.3764 4.64C67.4831 4.64 68.4631 4.87334 69.3164 5.34C70.1831 5.80667 70.8564 6.44667 71.3364 7.26C71.8297 8.07334 72.0764 9.02 72.0764 10.1C72.0764 11.1533 71.8297 12.0933 71.3364 12.92C70.8564 13.7467 70.1831 14.4 69.3164 14.88C68.4631 15.3467 67.4831 15.58 66.3764 15.58ZM66.3764 13.44C66.9897 13.44 67.5364 13.3067 68.0164 13.04C68.4964 12.7733 68.8697 12.3867 69.1364 11.88C69.4164 11.3733 69.5564 10.78 69.5564 10.1C69.5564 9.40667 69.4164 8.81334 69.1364 8.32C68.8697 7.81334 68.4964 7.42667 68.0164 7.16C67.5364 6.89334 66.9964 6.76 66.3964 6.76C65.7831 6.76 65.2364 6.89334 64.7564 7.16C64.2897 7.42667 63.9164 7.81334 63.6364 8.32C63.3564 8.81334 63.2164 9.40667 63.2164 10.1C63.2164 10.78 63.3564 11.3733 63.6364 11.88C63.9164 12.3867 64.2897 12.7733 64.7564 13.04C65.2364 13.3067 65.7764 13.44 66.3764 13.44ZM80.387 15.58C79.5204 15.58 78.727 15.38 78.007 14.98C77.3004 14.58 76.7337 13.98 76.307 13.18C75.8937 12.3667 75.687 11.34 75.687 10.1C75.687 8.84667 75.887 7.82 76.287 7.02C76.7004 6.22 77.2604 5.62667 77.967 5.24C78.6737 4.84 79.4804 4.64 80.387 4.64C81.4404 4.64 82.367 4.86667 83.167 5.32C83.9804 5.77334 84.6204 6.40667 85.087 7.22C85.567 8.03334 85.807 8.99334 85.807 10.1C85.807 11.2067 85.567 12.1733 85.087 13C84.6204 13.8133 83.9804 14.4467 83.167 14.9C82.367 15.3533 81.4404 15.58 80.387 15.58ZM74.467 19.32V4.76H76.847V7.28L76.767 10.12L76.967 12.96V19.32H74.467ZM80.107 13.44C80.707 13.44 81.2404 13.3067 81.707 13.04C82.187 12.7733 82.567 12.3867 82.847 11.88C83.127 11.3733 83.267 10.78 83.267 10.1C83.267 9.40667 83.127 8.81334 82.847 8.32C82.567 7.81334 82.187 7.42667 81.707 7.16C81.2404 6.89334 80.707 6.76 80.107 6.76C79.507 6.76 78.967 6.89334 78.487 7.16C78.007 7.42667 77.627 7.81334 77.347 8.32C77.067 8.81334 76.927 9.40667 76.927 10.1C76.927 10.78 77.067 11.3733 77.347 11.88C77.627 12.3867 78.007 12.7733 78.487 13.04C78.967 13.3067 79.507 13.44 80.107 13.44ZM88.178 15.44V4.76H90.678V15.44H88.178ZM89.438 3C88.9713 3 88.5846 2.85333 88.278 2.56C87.9846 2.26667 87.838 1.91334 87.838 1.5C87.838 1.07334 87.9846 0.720002 88.278 0.440001C88.5846 0.146669 88.9713 2.14577e-06 89.438 2.14577e-06C89.9046 2.14577e-06 90.2846 0.140002 90.578 0.420002C90.8846 0.686669 91.038 1.02667 91.038 1.44C91.038 1.88 90.8913 2.25333 90.598 2.56C90.3046 2.85333 89.918 3 89.438 3ZM98.8592 15.58C97.7392 15.58 96.7392 15.3467 95.8592 14.88C94.9925 14.4 94.3125 13.7467 93.8192 12.92C93.3259 12.0933 93.0792 11.1533 93.0792 10.1C93.0792 9.03334 93.3259 8.09334 93.8192 7.28C94.3125 6.45334 94.9925 5.80667 95.8592 5.34C96.7392 4.87334 97.7392 4.64 98.8592 4.64C99.8992 4.64 100.813 4.85334 101.599 5.28C102.399 5.69334 103.006 6.30667 103.419 7.12L101.499 8.24C101.179 7.73334 100.786 7.36 100.319 7.12C99.8659 6.88 99.3725 6.76 98.8392 6.76C98.2259 6.76 97.6725 6.89334 97.1792 7.16C96.6859 7.42667 96.2992 7.81334 96.0192 8.32C95.7392 8.81334 95.5992 9.40667 95.5992 10.1C95.5992 10.7933 95.7392 11.3933 96.0192 11.9C96.2992 12.3933 96.6859 12.7733 97.1792 13.04C97.6725 13.3067 98.2259 13.44 98.8392 13.44C99.3725 13.44 99.8659 13.32 100.319 13.08C100.786 12.84 101.179 12.4667 101.499 11.96L103.419 13.08C103.006 13.88 102.399 14.5 101.599 14.94C100.813 15.3667 99.8992 15.58 98.8592 15.58Z" fill="#6D2ABF"/>
</svg>
