<svg width="90" height="90" viewBox="0 0 90 90" fill="none" xmlns="http://www.w3.org/2000/svg">
<g id="Frame 54">
<rect width="90" height="90" rx="7.5" fill="#6D2ABF"/>
<g id="Frame 50">
<g id="Group 1">
<g id="Vector">
<path d="M66.0439 72.75C66.4167 72.8033 66.8689 72.8134 67.3497 72.75H66.0439Z" fill="#FEFEFE"/>
<path d="M12.7939 78C12.7939 80 13.9939 84 18.7939 84H67.5439M66.7939 84H72.0439M72.0439 83.9513C73.5439 84.2289 76.5439 83.4517 76.5439 78.1227V16.5C76.3297 15 75.1297 12 72.0439 12M12.7939 77.25V12C13.0439 10.25 14.4439 6.75 18.0439 6.75H63.7939M60.7939 6.75H66.0439C67.7939 6.75 71.2939 7.65 71.2939 11.25V67.5C71.2939 72.3 67.7939 73 66.0439 72.75M12.7938 78.75C12.5438 76.75 13.2438 72.75 18.0438 72.75H67.5439" stroke="#FEFEFE" stroke-width="1.5"/>
</g>
<path id="B" d="M33.8239 54.5V29.3H45.1279C48.0319 29.3 50.2639 29.888 51.8239 31.064C53.3839 32.216 54.1639 33.8 54.1639 35.816C54.1639 37.184 53.8519 38.336 53.2279 39.272C52.6279 40.208 51.8119 40.928 50.7799 41.432C49.7479 41.936 48.6319 42.188 47.4319 42.188L48.0799 41.108C49.5199 41.108 50.7919 41.36 51.8959 41.864C52.9999 42.368 53.8759 43.112 54.5239 44.096C55.1719 45.056 55.4959 46.256 55.4959 47.696C55.4959 49.856 54.6799 51.536 53.0479 52.736C51.4399 53.912 49.0399 54.5 45.8479 54.5H33.8239ZM37.4239 51.584H45.7039C47.6959 51.584 49.2199 51.248 50.2759 50.576C51.3319 49.904 51.8599 48.848 51.8599 47.408C51.8599 45.944 51.3319 44.876 50.2759 44.204C49.2199 43.532 47.6959 43.196 45.7039 43.196H37.0999V40.28H44.8039C46.6279 40.28 48.0439 39.944 49.0519 39.272C50.0599 38.6 50.5639 37.592 50.5639 36.248C50.5639 34.904 50.0599 33.896 49.0519 33.224C48.0439 32.552 46.6279 32.216 44.8039 32.216H37.4239V51.584Z" fill="#FEFEFE"/>
</g>
</g>
</g>
</svg>
