<svg width="60" height="60" viewBox="0 0 60 60" fill="none" xmlns="http://www.w3.org/2000/svg">
<g id="LogoDark">
<rect width="60" height="60" rx="5" fill="#C2A7FC"/>
<g id="Frame 50">
<g id="Group 1">
<g id="Vector">
<path d="M44.0293 48.5C44.2778 48.5355 44.5793 48.5423 44.8998 48.5H44.0293Z" fill="#1E1F24"/>
<path d="M8.5293 52C8.5293 53.3333 9.3293 56 12.5293 56H45.0293M44.5293 56H48.0293M48.0293 55.9676C49.0293 56.1526 51.0293 55.6345 51.0293 52.0818V11C50.8864 10 50.0864 8 48.0293 8M8.5293 51.5V8C8.69596 6.83333 9.6293 4.5 12.0293 4.5H42.5293M40.5293 4.5H44.0293C45.196 4.5 47.5293 5.1 47.5293 7.5V45C47.5293 48.2 45.196 48.6667 44.0293 48.5M8.52922 52.5C8.36255 51.1667 8.82922 48.5 12.0292 48.5H45.0292" stroke="#1E1F24"/>
</g>
<path id="B" d="M22.5493 36V19.2H30.0853C32.0213 19.2 33.5093 19.592 34.5493 20.376C35.5893 21.144 36.1093 22.2 36.1093 23.544C36.1093 24.456 35.9013 25.224 35.4853 25.848C35.0853 26.472 34.5413 26.952 33.8533 27.288C33.1653 27.624 32.4213 27.792 31.6213 27.792L32.0533 27.072C33.0133 27.072 33.8613 27.24 34.5973 27.576C35.3333 27.912 35.9173 28.408 36.3493 29.064C36.7813 29.704 36.9973 30.504 36.9973 31.464C36.9973 32.904 36.4533 34.024 35.3653 34.824C34.2933 35.608 32.6933 36 30.5653 36H22.5493ZM24.9493 34.056H30.4693C31.7973 34.056 32.8133 33.832 33.5173 33.384C34.2213 32.936 34.5733 32.232 34.5733 31.272C34.5733 30.296 34.2213 29.584 33.5173 29.136C32.8133 28.688 31.7973 28.464 30.4693 28.464H24.7333V26.52H29.8693C31.0853 26.52 32.0293 26.296 32.7013 25.848C33.3733 25.4 33.7093 24.728 33.7093 23.832C33.7093 22.936 33.3733 22.264 32.7013 21.816C32.0293 21.368 31.0853 21.144 29.8693 21.144H24.9493V34.056Z" fill="#1E1F24"/>
</g>
</g>
</g>
</svg>
