<svg width="33" height="32" viewBox="0 0 33 32" fill="none" xmlns="http://www.w3.org/2000/svg">
<path d="M16.0116 6.66667C17.9212 6.66667 19.7525 7.34095 21.1028 8.54119C22.4531 9.74141 23.2116 11.3693 23.2116 13.0667C23.2116 15.6921 23.8051 17.6581 24.5747 19.1039C25.5579 20.9511 26.0495 21.8747 26.0221 22.0856C25.9903 22.3319 25.9496 22.3996 25.7472 22.5433C25.5737 22.6667 24.7109 22.6667 22.9852 22.6667H9.03796C7.31225 22.6667 6.44941 22.6667 6.27596 22.5433C6.07363 22.3996 6.03297 22.3319 6.00108 22.0856C5.97373 21.8747 6.46535 20.9511 7.44859 19.1039C8.21815 17.6581 8.8116 15.6921 8.8116 13.0667C8.8116 11.3693 9.57018 9.74141 10.9204 8.54119C12.2707 7.34095 14.102 6.66667 16.0116 6.66667ZM16.0116 6.66667V4M12.4836 26.6667C13.4252 27.4977 14.6621 28.0021 16.0169 28.0021C17.3716 28.0021 18.6085 27.4977 19.5503 26.6667" stroke="#FCFCFF" stroke-width="2" stroke-linecap="round" stroke-linejoin="round"/>
</svg>
